<svg width="26" height="29" viewBox="0 0 26 29" fill="none" xmlns="http://www.w3.org/2000/svg">
<path d="M19.7031 20.7078H7.39374C7.19062 20.7078 7.02812 20.6172 6.94687 20.4359C6.82499 20.2547 6.82499 20.0281 6.90624 19.8469L7.96249 16.8562L6.90624 5.70936H3.49374V4.44061H7.39374C7.67812 4.44061 7.92187 4.66718 7.96249 4.98436L9.09999 16.8109C9.09999 16.9016 9.09999 16.9922 9.05937 17.1281L8.24687 19.3937H19.7031V20.7078Z" fill="black" fill-opacity="0.73"/>
<path d="M8.65313 17.5812L8.40938 16.3578L21.3688 13.3672V8.24684H7.96251V6.97809H21.9375C22.2625 6.97809 22.5063 7.24996 22.5063 7.61246V13.8656C22.5063 14.1828 22.3031 14.4093 22.0594 14.4547L8.65313 17.5812ZM20.2719 24.4687C19.0531 24.4687 18.0375 23.3359 18.0375 21.9765C18.0375 20.6171 19.0531 19.4843 20.2719 19.4843C21.4906 19.4843 22.5063 20.6171 22.5063 21.9765C22.5063 23.3359 21.4906 24.4687 20.2719 24.4687ZM20.2719 20.7078C19.6625 20.7078 19.1344 21.2515 19.1344 21.9765C19.1344 22.7015 19.6219 23.2453 20.2719 23.2453C20.9219 23.2453 21.4094 22.7015 21.4094 21.9765C21.4094 21.2515 20.8813 20.7078 20.2719 20.7078ZM6.86563 24.4687C5.64688 24.4687 4.63126 23.3359 4.63126 21.9765C4.63126 20.6171 5.64688 19.4843 6.86563 19.4843C8.08438 19.4843 9.10001 20.6171 9.10001 21.9765C9.10001 23.3359 8.08438 24.4687 6.86563 24.4687ZM6.86563 20.7078C6.25626 20.7078 5.72813 21.2515 5.72813 21.9765C5.72813 22.7015 6.21563 23.2453 6.86563 23.2453C7.51563 23.2453 8.00313 22.7015 8.00313 21.9765C8.00313 21.2515 7.47501 20.7078 6.86563 20.7078Z" fill="black" fill-opacity="0.73"/>
</svg>
