<svg width="26" height="27" viewBox="0 0 26 27" fill="none" xmlns="http://www.w3.org/2000/svg">
<g id="category">
<g id="Group">
<path id="Vector" fill-rule="evenodd" clip-rule="evenodd" d="M17.6426 2.25H21.1814C22.6456 2.25 23.8333 3.49413 23.8333 5.02895V8.73462C23.8333 10.2683 22.6456 11.5136 21.1814 11.5136H17.6426C16.1774 11.5136 14.9896 10.2683 14.9896 8.73462V5.02895C14.9896 3.49413 16.1774 2.25 17.6426 2.25ZM4.81967 2.25H8.35737C9.82262 2.25 11.0104 3.49413 11.0104 5.02895V8.73462C11.0104 10.2683 9.82262 11.5136 8.35737 11.5136H4.81967C3.35442 11.5136 2.16667 10.2683 2.16667 8.73462V5.02895C2.16667 3.49413 3.35442 2.25 4.81967 2.25ZM4.81967 15.4864H8.35737C9.82262 15.4864 11.0104 16.7306 11.0104 18.2665V21.971C11.0104 23.5059 9.82262 24.75 8.35737 24.75H4.81967C3.35442 24.75 2.16667 23.5059 2.16667 21.971V18.2665C2.16667 16.7306 3.35442 15.4864 4.81967 15.4864ZM17.6426 15.4864H21.1814C22.6456 15.4864 23.8333 16.7306 23.8333 18.2665V21.971C23.8333 23.5059 22.6456 24.75 21.1814 24.75H17.6426C16.1774 24.75 14.9896 23.5059 14.9896 21.971V18.2665C14.9896 16.7306 16.1774 15.4864 17.6426 15.4864Z" stroke="black" stroke-opacity="0.73" stroke-width="1.5" stroke-linecap="round" stroke-linejoin="round"/>
</g>
</g>
</svg>
