<svg width="30" height="29" viewBox="0 0 30 29" fill="none" xmlns="http://www.w3.org/2000/svg">
<g id="Community">
<path id="Vector" d="M17.8125 8.7C17.625 8.7 17.3438 8.51875 17.3438 8.3375C16.7813 4.44062 15.75 2.71875 15 2.71875C14.25 2.71875 13.2188 4.44062 12.6563 8.3375C12.6563 8.60938 12.375 8.79063 12.0938 8.7C11.8125 8.7 11.625 8.42812 11.7188 8.15625C12.0938 5.8 13.0313 1.8125 15 1.8125C16.9688 1.8125 17.9063 5.8 18.2813 8.24688C18.2813 8.42813 18.1875 8.7 17.8125 8.7ZM15 27.1875C13.0313 27.1875 12.0938 23.2 11.7188 20.7531C11.7188 20.4812 11.8125 20.3 12.0938 20.2094C12.375 20.2094 12.5625 20.3 12.6563 20.5719C13.3125 24.4688 14.3438 26.1906 15 26.1906C15.6563 26.1906 16.7813 24.4688 17.3438 20.5719C17.3438 20.3 17.625 20.1187 17.9063 20.2094C18.1875 20.2094 18.375 20.4812 18.2813 20.7531C17.9063 23.2 16.9688 27.1875 15 27.1875Z" fill="#686565"/>
<path id="Vector_2" d="M15.0938 19.8469C13.6875 19.8469 12.1875 19.3031 11.1562 18.2156C9 16.1313 9 12.6875 11.1562 10.5125C13.3125 8.42812 16.875 8.42812 19.125 10.5125C21.2812 12.5969 21.2812 16.0406 19.125 18.2156C18 19.3031 16.5 19.8469 15.0938 19.8469ZM11.7188 17.6719C13.5 19.3938 16.5 19.3938 18.375 17.6719C20.1562 15.8594 20.1562 13.05 18.375 11.2375C16.5938 9.425 13.5938 9.51562 11.7188 11.2375C9.84375 12.9594 9.9375 15.8594 11.7188 17.6719ZM5.4375 25.1031C5.0625 25.1031 4.6875 25.0125 4.40625 24.7406C3.84375 24.1969 3.84375 23.3813 4.40625 22.8375L8.4375 18.9406C8.625 18.7594 8.90625 18.7594 9.09375 18.9406L10.4063 20.2094C10.5938 20.3906 10.5938 20.6625 10.4063 20.8438L6.46875 24.65C6.1875 24.9219 5.8125 25.1031 5.4375 25.1031ZM5.15625 24.0156C5.34375 24.1969 5.625 24.1969 5.8125 24.0156L9.46875 20.4813L8.8125 19.8469L5.15625 23.3813C4.96875 23.5625 4.96875 23.8344 5.15625 24.0156Z" fill="#686565"/>
<path id="Vector_3" d="M9.46875 20.3C9.375 20.3 9.1875 20.3 9.09375 20.2094C8.90625 20.0281 8.90625 19.7563 9.09375 19.575L11.0625 17.6719C11.25 17.4906 11.5312 17.4906 11.7188 17.6719C11.9062 17.8531 11.9062 18.125 11.7188 18.3063L9.75 20.2094C9.65625 20.3 9.5625 20.3 9.46875 20.3ZM8.53125 17.6719C6 17.3094 1.875 16.4031 1.875 14.5C1.875 12.5969 6 11.6906 8.53125 11.3281C8.8125 11.3281 9 11.4188 9.09375 11.6906C9.09375 11.9625 9 12.1438 8.71875 12.2344C4.59375 12.7781 2.8125 13.775 2.8125 14.5C2.8125 15.225 4.59375 16.2219 8.625 16.7656C8.90625 16.7656 9.09375 17.0375 9 17.3094C9 17.4906 8.8125 17.6719 8.53125 17.6719ZM21.4688 17.6719C21.2812 17.6719 21 17.4906 21 17.3094C21 17.0375 21.0938 16.8563 21.375 16.7656C25.4062 16.1313 27.1875 15.1344 27.1875 14.5C27.1875 13.8656 25.4062 12.7781 21.375 12.2344C21.0938 12.2344 20.9062 11.9625 21 11.6906C21 11.4188 21.2812 11.2375 21.5625 11.3281C24 11.6906 28.2188 12.5969 28.2188 14.5C28.2188 16.4031 24 17.3094 21.4688 17.6719Z" fill="#686565"/>
<path id="Vector_4" d="M15 27.1875C12.5625 27.1875 10.125 26.5531 8.0625 25.1937C7.875 25.1031 7.78125 24.7406 7.875 24.5594C7.96875 24.3781 8.34375 24.2875 8.53125 24.3781C10.5 25.5562 12.75 26.1906 15 26.1906C21.75 26.1906 27.1875 20.9344 27.1875 14.4094C27.1875 7.88437 21.75 2.71875 15 2.71875C8.25 2.71875 2.8125 7.975 2.8125 14.5C2.8125 16.675 3.46875 18.85 4.6875 20.7531C4.78125 20.9344 4.78125 21.2063 4.5 21.3875C4.3125 21.4781 4.03125 21.4781 3.84375 21.2062C2.53125 19.2125 1.875 16.8562 1.875 14.5C1.875 7.52188 7.78125 1.8125 15 1.8125C22.2188 1.8125 28.125 7.52188 28.125 14.5C28.125 21.4781 22.2188 27.1875 15 27.1875Z" fill="#686565"/>
<path id="Vector_5" d="M15 23.5625C13.5 23.5625 12 23.3813 10.5 23.0187C10.2188 22.9281 10.125 22.7469 10.125 22.475C10.2188 22.2031 10.4062 22.1125 10.6875 22.1125C12.0938 22.475 13.5 22.6562 14.9062 22.6562C21.6562 22.6562 27.0938 19.0312 27.0938 14.5C27.0938 9.96875 21.6562 6.34375 14.9062 6.34375C8.15625 6.34375 2.8125 9.96875 2.8125 14.5C2.8125 16.4031 3.84375 18.2156 5.625 19.6656C5.8125 19.8469 5.8125 20.1187 5.71875 20.3C5.53125 20.4812 5.25 20.4812 5.0625 20.3906C3 18.7594 1.875 16.675 1.875 14.5C1.875 9.51562 7.78125 5.4375 15 5.4375C22.2188 5.4375 28.125 9.51562 28.125 14.5C28.125 19.4844 22.2188 23.5625 15 23.5625Z" fill="#686565"/>
<path id="Vector_6" d="M15 27.1875C12.75 27.1875 10.5938 26.1 8.90625 24.1969C8.71875 24.0156 8.71875 23.7437 9 23.5625C9.1875 23.3813 9.46875 23.3813 9.65625 23.6531C11.1562 25.375 13.0312 26.3719 15 26.3719C19.6875 26.3719 23.4375 21.1156 23.4375 14.5906C23.4375 8.06563 19.6875 2.71875 15 2.71875C10.3125 2.71875 6.5625 7.975 6.5625 14.5C6.5625 15.8594 6.75 17.3094 7.125 18.5781C7.21875 18.85 7.03125 19.0312 6.75 19.1219C6.46875 19.2125 6.28125 19.0312 6.1875 18.7594C5.8125 17.4 5.625 15.95 5.625 14.5C5.625 7.52188 9.84375 1.8125 15 1.8125C20.1562 1.8125 24.375 7.52188 24.375 14.5C24.375 21.4781 20.1562 27.1875 15 27.1875Z" fill="#686565"/>
</g>
</svg>
