<svg width="20" height="22" viewBox="0 0 20 22" fill="none" xmlns="http://www.w3.org/2000/svg">
<path d="M13.5705 0C12.3005 0.00260971 11.0595 0.446695 10.0028 1.27661C9.03394 0.516226 7.90809 0.079742 6.74524 0.0136643C5.58239 -0.0524135 4.42611 0.254391 3.39958 0.901389C2.37306 1.54839 1.51474 2.51134 0.916095 3.68766C0.317446 4.86397 0.00088409 6.20958 0.000137568 7.58111C-0.00634338 8.73975 0.216252 9.88426 0.650293 10.924C1.08433 11.9637 1.7179 12.8701 2.50081 13.5714L9.41935 21.7024C9.49419 21.7964 9.58458 21.8712 9.68493 21.9224C9.78529 21.9736 9.89349 22 10.0028 22C10.1122 22 10.2204 21.9736 10.3208 21.9224C10.4211 21.8712 10.5115 21.7964 10.5863 21.7024L17.4215 13.6499C18.5027 12.6963 19.3018 11.3662 19.7056 9.84781C20.1095 8.32945 20.0975 6.69989 19.6715 5.18996C19.2455 3.68004 18.4271 2.36629 17.3321 1.43482C16.2371 0.503347 14.9211 0.00137227 13.5705 0ZM16.3212 12.1769L10.0028 19.6206L3.58444 12.0787C2.78317 11.3725 2.19084 10.3871 1.89134 9.2622C1.59185 8.1373 1.60038 6.92991 1.91572 5.81104C2.23107 4.69217 2.83725 3.71856 3.64838 3.02811C4.45952 2.33767 5.4345 1.96539 6.43521 1.96402C7.54122 1.96515 8.61298 2.41609 9.46937 3.24063C9.61768 3.39131 9.807 3.47419 10.0028 3.47419C10.1987 3.47419 10.388 3.39131 10.5363 3.24063C11.5422 2.33689 12.8116 1.94091 14.0653 2.1398C14.6861 2.23829 15.2843 2.47985 15.8259 2.8507C16.3674 3.22156 16.8416 3.71444 17.2215 4.3012C17.6013 4.88797 17.8793 5.55713 18.0397 6.27047C18.2 6.98382 18.2395 7.72738 18.1559 8.45871C18.0723 9.19004 17.8672 9.89481 17.5524 10.5328C17.2377 11.1708 16.8193 11.7294 16.3212 12.1769Z" fill="black" fill-opacity="0.73"/>
</svg>
