<svg width="23" height="25" viewBox="0 0 23 25" fill="none" xmlns="http://www.w3.org/2000/svg">
<g id="Group 69">
<path id="Vector" d="M9.4175 1.88406L2.27312 8.44103C1.46893 9.17359 0.965574 10.7078 1.1557 11.849L2.64701 21.1193C2.9159 22.773 4.34779 24.0984 5.84769 24.0813L17.5136 23.9481C19.0031 23.9311 20.4146 22.5616 20.6458 20.9138L21.9252 11.6119C22.0788 10.4668 21.5405 8.9445 20.7303 8.23036L13.4382 1.84984C12.3122 0.859292 10.5103 0.879859 9.4175 1.88406V1.88406Z" stroke="#FA6094" stroke-width="1.5" stroke-linecap="round" stroke-linejoin="round"/>
<path id="Vector_2" d="M11.5771 17.8035C12.2677 17.7956 12.9265 17.4808 13.4086 16.9282C13.8907 16.3757 14.1566 15.6308 14.1478 14.8573C14.1389 14.0838 13.8561 13.3451 13.3615 12.8037C12.867 12.2624 12.2011 11.9626 11.5105 11.9705C10.8199 11.9784 10.161 12.2932 9.67894 12.8458C9.19684 13.3983 8.93095 14.1432 8.93978 14.9167C8.94861 15.6902 9.23143 16.4289 9.72601 16.9703C10.2206 17.5116 10.8864 17.8114 11.5771 17.8035Z" fill="white" stroke="#FA6094" stroke-width="1.5" stroke-linecap="round" stroke-linejoin="round"/>
</g>
</svg>
