<svg width="23" height="24" viewBox="0 0 23 24" fill="none" xmlns="http://www.w3.org/2000/svg">
<path d="M20.5491 16.8675C20.3478 16.4925 20.1035 16.1175 19.8303 15.72C19.1804 14.8731 18.7299 13.879 18.515 12.8175L18.2131 8.3925C18.0335 4.965 16.1144 1.5 12.2978 1.5H10.7022C6.88564 1.5 4.9522 4.965 4.75814 8.385L4.45626 12.8175C4.24229 13.8884 3.79193 14.8925 3.14095 15.75C2.89658 16.14 2.6522 16.5 2.48689 16.8375C2.30947 17.086 2.20202 17.3812 2.17662 17.6899C2.15123 17.9986 2.20889 18.3086 2.34314 18.585C2.49976 18.8753 2.7305 19.1145 3.00967 19.276C3.28884 19.4375 3.60549 19.5151 3.92439 19.5H9.47314C9.35493 19.8398 9.31694 20.2044 9.3624 20.5628C9.40786 20.9212 9.53541 21.263 9.73427 21.559C9.93313 21.8551 10.1974 22.0968 10.5048 22.2637C10.8122 22.4305 11.1535 22.5176 11.5 22.5176C11.8465 22.5176 12.1879 22.4305 12.4952 22.2637C12.8026 22.0968 13.0669 21.8551 13.2658 21.559C13.4646 21.263 13.5922 20.9212 13.6376 20.5628C13.6831 20.2044 13.6451 19.8398 13.5269 19.5H19.0756C19.3975 19.5122 19.7161 19.4302 19.9956 19.2632C20.2751 19.0961 20.5041 18.8508 20.6569 18.555C20.7912 18.2911 20.8523 17.9934 20.8333 17.6952C20.8142 17.3971 20.7158 17.1104 20.5491 16.8675ZM12.2188 20.25C12.2188 20.3983 12.1766 20.5433 12.0976 20.6667C12.0187 20.79 11.9064 20.8861 11.7751 20.9429C11.6437 20.9997 11.4992 21.0145 11.3598 20.9856C11.2204 20.9566 11.0923 20.8852 10.9918 20.7803C10.8913 20.6754 10.8228 20.5418 10.7951 20.3963C10.7673 20.2508 10.7816 20.1 10.836 19.963C10.8904 19.8259 10.9825 19.7088 11.1007 19.6264C11.2189 19.544 11.3579 19.5 11.5 19.5C11.6906 19.5 11.8735 19.579 12.0082 19.7197C12.143 19.8603 12.2188 20.0511 12.2188 20.25ZM19.4063 17.8725C19.4063 17.9325 19.2841 18 19.1044 18H3.92439C3.7447 18 3.65126 17.9325 3.62251 17.8725C3.59376 17.8125 3.62251 17.73 3.69439 17.61C3.88845 17.265 4.11126 16.905 4.34126 16.545C5.06001 15.465 5.77876 14.235 5.88658 12.9225L6.19564 8.49C6.34658 5.955 7.61876 3 10.7022 3H12.2978C15.3813 3 16.6534 5.955 16.8044 8.4975L17.1135 12.9225C17.1997 14.25 17.9688 15.465 18.6875 16.545C18.9175 16.905 19.1403 17.295 19.3703 17.6775C19.3932 17.7032 19.4087 17.7352 19.4151 17.7696C19.4214 17.8041 19.4184 17.8397 19.4063 17.8725Z" fill="black" fill-opacity="0.73"/>
</svg>
