<svg width="27" height="25" viewBox="0 0 27 25" fill="none" xmlns="http://www.w3.org/2000/svg">
<g id="profile">
<g id="Group">
<path id="Vector" d="M13.0264 12.5583C15.995 12.5583 18.4016 10.33 18.4016 7.58121C18.4016 4.83244 15.995 2.60413 13.0264 2.60413C10.0577 2.60413 7.65112 4.83244 7.65112 7.58121C7.65112 10.33 10.0577 12.5583 13.0264 12.5583Z" stroke="#686565" stroke-width="1.5" stroke-linecap="round" stroke-linejoin="round"/>
<path id="Vector_2" fill-rule="evenodd" clip-rule="evenodd" d="M4.49999 19.4805C4.49856 19.1307 4.58307 18.785 4.74715 18.4699C5.26202 17.5164 6.71396 17.0111 7.91877 16.7822C8.78767 16.6105 9.66858 16.4958 10.5549 16.439C12.1959 16.3055 13.8464 16.3055 15.4874 16.439C16.3737 16.4965 17.2545 16.6112 18.1236 16.7822C19.3284 17.0111 20.7803 17.4687 21.2952 18.4699C21.6252 19.1124 21.6252 19.8583 21.2952 20.5008C20.7803 21.5019 19.3284 21.9596 18.1236 22.1789C17.2557 22.3577 16.3745 22.4756 15.4874 22.5316C14.1518 22.6365 12.8099 22.6556 11.4714 22.5889C11.1625 22.5889 10.8638 22.5889 10.5549 22.5316C9.6712 22.4763 8.79335 22.3583 7.92907 22.1789C6.71396 21.9596 5.27232 21.5019 4.74715 20.5008C4.58391 20.1819 4.49948 19.8334 4.49999 19.4805Z" stroke="#686565" stroke-width="1.5" stroke-linecap="round" stroke-linejoin="round"/>
</g>
</g>
</svg>
