<svg width="18" height="18" viewBox="0 0 18 18" fill="none" xmlns="http://www.w3.org/2000/svg">
<g clip-path="url(#clip0_16_43)">
<path d="M15.75 8.625C15.75 12.5625 12.5625 15.75 8.625 15.75C4.6875 15.75 1.5 12.5625 1.5 8.625C1.5 4.6875 4.6875 1.5 8.625 1.5M16.5 16.5L15 15" stroke="#FA6094" stroke-width="1.5" stroke-linecap="round" stroke-linejoin="round"/>
<path d="M10.875 4.5975C10.6125 3.7725 10.92 2.745 11.79 2.4675C12.2475 2.3175 12.81 2.445 13.1325 2.8875C13.4325 2.43 14.0175 2.325 14.4675 2.4675C15.3375 2.745 15.645 3.7725 15.3825 4.5975C14.97 5.91 13.53 6.5925 13.1325 6.5925C12.7275 6.5925 11.3025 5.925 10.875 4.5975V4.5975Z" stroke="#FA6094" stroke-width="1.5" stroke-linecap="round" stroke-linejoin="round"/>
</g>
<defs>
<clipPath id="clip0_16_43">
<rect width="18" height="18" fill="white"/>
</clipPath>
</defs>
</svg>
